<?xml version="1.0" encoding="UTF-8" standalone="no"?>
<svg width="598px" height="142px" viewBox="0 0 598 142" version="1.1" xmlns="http://www.w3.org/2000/svg" xmlns:xlink="http://www.w3.org/1999/xlink">
    <!-- Generator: Sketch 3.8.3 (29802) - http://www.bohemiancoding.com/sketch -->
    <title>Layer_1</title>
    <desc>Created with Sketch.</desc>
    <defs></defs>
    <g id="Page-1" stroke="none" stroke-width="1" fill="none" fill-rule="evenodd">
        <g id="Layer_1" transform="translate(0.000000, -1.000000)" fill="#FFFFFF">
            <path d="M99.7172414,70.9103448 C99.7172414,70.9103448 100.348276,99.2862069 71.3413793,99.2862069 C71.3413793,99.2862069 41.9310345,101.872414 41.9310345,70.9103448 C41.9310345,70.9103448 41.7448276,42.637931 71.237931,42.637931 C71.2482759,42.637931 99.7172414,43.0413793 99.7172414,70.9103448 L99.7172414,70.9103448 L99.7172414,70.9103448 Z" id="Shape"></path>
            <path d="M570.013793,59.5 C564.148276,57.6482759 543.489655,52.7137931 533,49.6310345 C522.5,46.5482759 521.268966,41.6137931 521.268966,41.6137931 C518.796552,37.3 522.8,34.5172414 522.8,34.5172414 C539.775862,30.8137931 539.144828,45.0068966 539.144828,45.0068966 L591.903448,44.6965517 C591.903448,21.8655172 576.47931,11.9965517 576.47931,11.9965517 C552.437931,-6.82068966 514.193103,4.27931034 514.193103,4.27931034 L473.144828,4.27931034 L439.844828,64.4241379 L439.844828,4.27931034 L397.275862,4.27931034 L357.8,74.9241379 L357.8,4.27931034 L209.734483,4.27931034 L209.734483,60.1103448 L178.896552,4.27931034 L127.37931,4.27931034 L127.37931,28.0310345 C105.065517,-0.344827586 70.7310345,1.03103448 70.7310345,1.03103448 C70.7310345,1.03103448 7.38965517,-2.6 0.603448276,67.3206897 C0.603448276,67.3206897 -5.56206897,134.77931 68.2586207,142.372414 C109.182759,146.593103 127.37931,114.389655 127.37931,114.389655 L127.37931,139.486207 L176.424138,138.658621 L176.424138,80.2724138 L208.917241,138.255172 L358.1,138.151724 L396.655172,70.9103448 L397.296552,138.772414 L440.786207,138.151724 L480.862069,67.5172414 C489.210345,76.7758621 508.948276,81.7 508.948276,81.7 C537.003448,89.4172414 536.082759,90.3482759 536.082759,90.3482759 C544.1,94.662069 540.106897,103.92069 540.106897,103.92069 C536.082759,111.017241 525.603448,108.855172 525.603448,108.855172 C517.906897,107.924138 518.206897,92.8103448 518.206897,92.8103448 L468.851724,92.8103448 C470.082759,115.010345 480.872414,122.737931 480.872414,122.737931 C508.327586,152.334483 557.682759,139.713793 557.682759,139.713793 C600.241379,130.134483 597.47931,96.2137931 597.47931,96.2137931 C599.010345,72.762069 575.868966,61.3517241 570.013793,59.5 L570.013793,59.5 L570.013793,59.5 Z M126.655172,95.2827586 C126.655172,95.2827586 126.655172,102.482759 120.086207,103.713793 C120.086207,103.713793 75.2517241,109.258621 22.4,103.713793 C22.4,103.713793 15.8310345,105.162069 15.4068966,91.7862069 L15.4068966,48.1931034 C15.4068966,48.1931034 15.2103448,44.9034483 16.2344828,41.4068966 C16.2344828,41.4068966 16.6482759,38.3241379 23.0206897,37.9103448 C23.0206897,37.9103448 84.3034483,33.5965517 118.648276,37.9103448 C118.648276,37.9103448 126.458621,38.1172414 126.665517,45.937931 C126.655172,45.9275862 127.67931,77.8 126.655172,95.2827586 L126.655172,95.2827586 L126.655172,95.2827586 Z M318.52069,101.655172 L253.337931,101.655172 L253.337931,86.6448276 L303.510345,86.6448276 L303.510345,54.762069 L253.337931,54.762069 L253.337931,40.9931034 L318.52069,40.9931034 L318.52069,101.655172 L318.52069,101.655172 L318.52069,101.655172 Z" id="Shape"></path>
        </g>
    </g>
</svg>